<svg xmlns="http://www.w3.org/2000/svg" viewBox="0 0 100 100">
  <!-- Background circle -->
  <circle cx="50" cy="50" r="50" fill="#2563EB" />
  
  <!-- Brain outline - simplified -->
  <path d="M65,38 C71,38 75,42 75,48 C75,50 74,52 73,54 C75,56 76,59 76,62 C76,67 72,71 67,71 L57,71 L57,75 C57,77 55,79 53,79 L47,79 C45,79 43,77 43,75 L43,71 L33,71 C28,71 24,67 24,62 C24,59 25,56 27,54 C26,52 25,50 25,48 C25,42 29,38 35,38 C38,38 40,39 42,40 C44,39 47,38 50,38 C53,38 56,39 58,40 C60,39 62,38 65,38 Z" 
        fill="white" />
  
  <!-- Book shape - simplified -->
  <path d="M40,48 L40,65 L50,60 L60,65 L60,48 L50,53 Z" fill="#2563EB" />
</svg> 